%TF.GenerationSoftware,KiCad,Pcbnew,10.0.0*%
%TF.CreationDate,2026-09-27T12:01:00-07:00*%
%TF.ProjectId,pulses_plus_submin_v2,70756c73-6573-45f7-906c-75735f737562,rev?*%
%TF.SameCoordinates,Original*%
%TF.FileFunction,Legend,Top*%
%TF.FilePolarity,Positive*%
%FSLAX46Y46*%
G04 Gerber Fmt 4.6, Leading zero omitted, Abs format (unit mm)*
G04 Created by KiCad (PCBNEW 10.0.0) date 2026-09-27 12:01:00*
%MOMM*%
%LPD*%
G01*
G04 APERTURE LIST*
%ADD10C,0.100000*%
%ADD11C,0.150000*%
%ADD12C,0.120000*%
%ADD13C,0.127000*%
G04 APERTURE END LIST*
D10*
X164607412Y-46661027D02*
X163607412Y-46994360D01*
X163607412Y-46994360D02*
X164607412Y-47327693D01*
X163655032Y-48041979D02*
X163607412Y-47946741D01*
X163607412Y-47946741D02*
X163607412Y-47756265D01*
X163607412Y-47756265D02*
X163655032Y-47661027D01*
X163655032Y-47661027D02*
X163750270Y-47613408D01*
X163750270Y-47613408D02*
X164131222Y-47613408D01*
X164131222Y-47613408D02*
X164226460Y-47661027D01*
X164226460Y-47661027D02*
X164274079Y-47756265D01*
X164274079Y-47756265D02*
X164274079Y-47946741D01*
X164274079Y-47946741D02*
X164226460Y-48041979D01*
X164226460Y-48041979D02*
X164131222Y-48089598D01*
X164131222Y-48089598D02*
X164035984Y-48089598D01*
X164035984Y-48089598D02*
X163940746Y-47613408D01*
X163607412Y-48518170D02*
X164274079Y-48518170D01*
X164083603Y-48518170D02*
X164178841Y-48565789D01*
X164178841Y-48565789D02*
X164226460Y-48613408D01*
X164226460Y-48613408D02*
X164274079Y-48708646D01*
X164274079Y-48708646D02*
X164274079Y-48803884D01*
X163655032Y-49089599D02*
X163607412Y-49184837D01*
X163607412Y-49184837D02*
X163607412Y-49375313D01*
X163607412Y-49375313D02*
X163655032Y-49470551D01*
X163655032Y-49470551D02*
X163750270Y-49518170D01*
X163750270Y-49518170D02*
X163797889Y-49518170D01*
X163797889Y-49518170D02*
X163893127Y-49470551D01*
X163893127Y-49470551D02*
X163940746Y-49375313D01*
X163940746Y-49375313D02*
X163940746Y-49232456D01*
X163940746Y-49232456D02*
X163988365Y-49137218D01*
X163988365Y-49137218D02*
X164083603Y-49089599D01*
X164083603Y-49089599D02*
X164131222Y-49089599D01*
X164131222Y-49089599D02*
X164226460Y-49137218D01*
X164226460Y-49137218D02*
X164274079Y-49232456D01*
X164274079Y-49232456D02*
X164274079Y-49375313D01*
X164274079Y-49375313D02*
X164226460Y-49470551D01*
X163607412Y-49946742D02*
X164274079Y-49946742D01*
X164607412Y-49946742D02*
X164559793Y-49899123D01*
X164559793Y-49899123D02*
X164512174Y-49946742D01*
X164512174Y-49946742D02*
X164559793Y-49994361D01*
X164559793Y-49994361D02*
X164607412Y-49946742D01*
X164607412Y-49946742D02*
X164512174Y-49946742D01*
X163607412Y-50565789D02*
X163655032Y-50470551D01*
X163655032Y-50470551D02*
X163702651Y-50422932D01*
X163702651Y-50422932D02*
X163797889Y-50375313D01*
X163797889Y-50375313D02*
X164083603Y-50375313D01*
X164083603Y-50375313D02*
X164178841Y-50422932D01*
X164178841Y-50422932D02*
X164226460Y-50470551D01*
X164226460Y-50470551D02*
X164274079Y-50565789D01*
X164274079Y-50565789D02*
X164274079Y-50708646D01*
X164274079Y-50708646D02*
X164226460Y-50803884D01*
X164226460Y-50803884D02*
X164178841Y-50851503D01*
X164178841Y-50851503D02*
X164083603Y-50899122D01*
X164083603Y-50899122D02*
X163797889Y-50899122D01*
X163797889Y-50899122D02*
X163702651Y-50851503D01*
X163702651Y-50851503D02*
X163655032Y-50803884D01*
X163655032Y-50803884D02*
X163607412Y-50708646D01*
X163607412Y-50708646D02*
X163607412Y-50565789D01*
X164274079Y-51327694D02*
X163607412Y-51327694D01*
X164178841Y-51327694D02*
X164226460Y-51375313D01*
X164226460Y-51375313D02*
X164274079Y-51470551D01*
X164274079Y-51470551D02*
X164274079Y-51613408D01*
X164274079Y-51613408D02*
X164226460Y-51708646D01*
X164226460Y-51708646D02*
X164131222Y-51756265D01*
X164131222Y-51756265D02*
X163607412Y-51756265D01*
X163607412Y-53518170D02*
X163607412Y-52946742D01*
X163607412Y-53232456D02*
X164607412Y-53232456D01*
X164607412Y-53232456D02*
X164464555Y-53137218D01*
X164464555Y-53137218D02*
X164369317Y-53041980D01*
X164369317Y-53041980D02*
X164321698Y-52946742D01*
X163702651Y-53946742D02*
X163655032Y-53994361D01*
X163655032Y-53994361D02*
X163607412Y-53946742D01*
X163607412Y-53946742D02*
X163655032Y-53899123D01*
X163655032Y-53899123D02*
X163702651Y-53946742D01*
X163702651Y-53946742D02*
X163607412Y-53946742D01*
X163607412Y-54946741D02*
X163607412Y-54375313D01*
X163607412Y-54661027D02*
X164607412Y-54661027D01*
X164607412Y-54661027D02*
X164464555Y-54565789D01*
X164464555Y-54565789D02*
X164369317Y-54470551D01*
X164369317Y-54470551D02*
X164321698Y-54375313D01*
X161997468Y-46803884D02*
X162997468Y-46803884D01*
X162997468Y-46803884D02*
X162283183Y-47137217D01*
X162283183Y-47137217D02*
X162997468Y-47470550D01*
X162997468Y-47470550D02*
X161997468Y-47470550D01*
X161997468Y-47946741D02*
X162664135Y-47946741D01*
X162997468Y-47946741D02*
X162949849Y-47899122D01*
X162949849Y-47899122D02*
X162902230Y-47946741D01*
X162902230Y-47946741D02*
X162949849Y-47994360D01*
X162949849Y-47994360D02*
X162997468Y-47946741D01*
X162997468Y-47946741D02*
X162902230Y-47946741D01*
X162045088Y-48375312D02*
X161997468Y-48470550D01*
X161997468Y-48470550D02*
X161997468Y-48661026D01*
X161997468Y-48661026D02*
X162045088Y-48756264D01*
X162045088Y-48756264D02*
X162140326Y-48803883D01*
X162140326Y-48803883D02*
X162187945Y-48803883D01*
X162187945Y-48803883D02*
X162283183Y-48756264D01*
X162283183Y-48756264D02*
X162330802Y-48661026D01*
X162330802Y-48661026D02*
X162330802Y-48518169D01*
X162330802Y-48518169D02*
X162378421Y-48422931D01*
X162378421Y-48422931D02*
X162473659Y-48375312D01*
X162473659Y-48375312D02*
X162521278Y-48375312D01*
X162521278Y-48375312D02*
X162616516Y-48422931D01*
X162616516Y-48422931D02*
X162664135Y-48518169D01*
X162664135Y-48518169D02*
X162664135Y-48661026D01*
X162664135Y-48661026D02*
X162616516Y-48756264D01*
X162045088Y-49184836D02*
X161997468Y-49280074D01*
X161997468Y-49280074D02*
X161997468Y-49470550D01*
X161997468Y-49470550D02*
X162045088Y-49565788D01*
X162045088Y-49565788D02*
X162140326Y-49613407D01*
X162140326Y-49613407D02*
X162187945Y-49613407D01*
X162187945Y-49613407D02*
X162283183Y-49565788D01*
X162283183Y-49565788D02*
X162330802Y-49470550D01*
X162330802Y-49470550D02*
X162330802Y-49327693D01*
X162330802Y-49327693D02*
X162378421Y-49232455D01*
X162378421Y-49232455D02*
X162473659Y-49184836D01*
X162473659Y-49184836D02*
X162521278Y-49184836D01*
X162521278Y-49184836D02*
X162616516Y-49232455D01*
X162616516Y-49232455D02*
X162664135Y-49327693D01*
X162664135Y-49327693D02*
X162664135Y-49470550D01*
X162664135Y-49470550D02*
X162616516Y-49565788D01*
X161997468Y-50041979D02*
X162664135Y-50041979D01*
X162997468Y-50041979D02*
X162949849Y-49994360D01*
X162949849Y-49994360D02*
X162902230Y-50041979D01*
X162902230Y-50041979D02*
X162949849Y-50089598D01*
X162949849Y-50089598D02*
X162997468Y-50041979D01*
X162997468Y-50041979D02*
X162902230Y-50041979D01*
X162664135Y-50518169D02*
X161997468Y-50518169D01*
X162568897Y-50518169D02*
X162616516Y-50565788D01*
X162616516Y-50565788D02*
X162664135Y-50661026D01*
X162664135Y-50661026D02*
X162664135Y-50803883D01*
X162664135Y-50803883D02*
X162616516Y-50899121D01*
X162616516Y-50899121D02*
X162521278Y-50946740D01*
X162521278Y-50946740D02*
X161997468Y-50946740D01*
X162664135Y-51851502D02*
X161854611Y-51851502D01*
X161854611Y-51851502D02*
X161759373Y-51803883D01*
X161759373Y-51803883D02*
X161711754Y-51756264D01*
X161711754Y-51756264D02*
X161664135Y-51661026D01*
X161664135Y-51661026D02*
X161664135Y-51518169D01*
X161664135Y-51518169D02*
X161711754Y-51422931D01*
X162045088Y-51851502D02*
X161997468Y-51756264D01*
X161997468Y-51756264D02*
X161997468Y-51565788D01*
X161997468Y-51565788D02*
X162045088Y-51470550D01*
X162045088Y-51470550D02*
X162092707Y-51422931D01*
X162092707Y-51422931D02*
X162187945Y-51375312D01*
X162187945Y-51375312D02*
X162473659Y-51375312D01*
X162473659Y-51375312D02*
X162568897Y-51422931D01*
X162568897Y-51422931D02*
X162616516Y-51470550D01*
X162616516Y-51470550D02*
X162664135Y-51565788D01*
X162664135Y-51565788D02*
X162664135Y-51756264D01*
X162664135Y-51756264D02*
X162616516Y-51851502D01*
X161997468Y-53089598D02*
X162997468Y-53089598D01*
X162997468Y-53089598D02*
X162283183Y-53422931D01*
X162283183Y-53422931D02*
X162997468Y-53756264D01*
X162997468Y-53756264D02*
X161997468Y-53756264D01*
X161997468Y-54232455D02*
X162664135Y-54232455D01*
X162997468Y-54232455D02*
X162949849Y-54184836D01*
X162949849Y-54184836D02*
X162902230Y-54232455D01*
X162902230Y-54232455D02*
X162949849Y-54280074D01*
X162949849Y-54280074D02*
X162997468Y-54232455D01*
X162997468Y-54232455D02*
X162902230Y-54232455D01*
X161997468Y-54851502D02*
X162045088Y-54756264D01*
X162045088Y-54756264D02*
X162140326Y-54708645D01*
X162140326Y-54708645D02*
X162997468Y-54708645D01*
X162045088Y-55613407D02*
X161997468Y-55518169D01*
X161997468Y-55518169D02*
X161997468Y-55327693D01*
X161997468Y-55327693D02*
X162045088Y-55232455D01*
X162045088Y-55232455D02*
X162140326Y-55184836D01*
X162140326Y-55184836D02*
X162521278Y-55184836D01*
X162521278Y-55184836D02*
X162616516Y-55232455D01*
X162616516Y-55232455D02*
X162664135Y-55327693D01*
X162664135Y-55327693D02*
X162664135Y-55518169D01*
X162664135Y-55518169D02*
X162616516Y-55613407D01*
X162616516Y-55613407D02*
X162521278Y-55661026D01*
X162521278Y-55661026D02*
X162426040Y-55661026D01*
X162426040Y-55661026D02*
X162330802Y-55184836D01*
X161997468Y-56851503D02*
X162997468Y-56851503D01*
X162997468Y-56851503D02*
X162283183Y-57184836D01*
X162283183Y-57184836D02*
X162997468Y-57518169D01*
X162997468Y-57518169D02*
X161997468Y-57518169D01*
X161997468Y-58137217D02*
X162045088Y-58041979D01*
X162045088Y-58041979D02*
X162092707Y-57994360D01*
X162092707Y-57994360D02*
X162187945Y-57946741D01*
X162187945Y-57946741D02*
X162473659Y-57946741D01*
X162473659Y-57946741D02*
X162568897Y-57994360D01*
X162568897Y-57994360D02*
X162616516Y-58041979D01*
X162616516Y-58041979D02*
X162664135Y-58137217D01*
X162664135Y-58137217D02*
X162664135Y-58280074D01*
X162664135Y-58280074D02*
X162616516Y-58375312D01*
X162616516Y-58375312D02*
X162568897Y-58422931D01*
X162568897Y-58422931D02*
X162473659Y-58470550D01*
X162473659Y-58470550D02*
X162187945Y-58470550D01*
X162187945Y-58470550D02*
X162092707Y-58422931D01*
X162092707Y-58422931D02*
X162045088Y-58375312D01*
X162045088Y-58375312D02*
X161997468Y-58280074D01*
X161997468Y-58280074D02*
X161997468Y-58137217D01*
X161997468Y-59327693D02*
X162997468Y-59327693D01*
X162045088Y-59327693D02*
X161997468Y-59232455D01*
X161997468Y-59232455D02*
X161997468Y-59041979D01*
X161997468Y-59041979D02*
X162045088Y-58946741D01*
X162045088Y-58946741D02*
X162092707Y-58899122D01*
X162092707Y-58899122D02*
X162187945Y-58851503D01*
X162187945Y-58851503D02*
X162473659Y-58851503D01*
X162473659Y-58851503D02*
X162568897Y-58899122D01*
X162568897Y-58899122D02*
X162616516Y-58946741D01*
X162616516Y-58946741D02*
X162664135Y-59041979D01*
X162664135Y-59041979D02*
X162664135Y-59232455D01*
X162664135Y-59232455D02*
X162616516Y-59327693D01*
X162664135Y-60232455D02*
X161997468Y-60232455D01*
X162664135Y-59803884D02*
X162140326Y-59803884D01*
X162140326Y-59803884D02*
X162045088Y-59851503D01*
X162045088Y-59851503D02*
X161997468Y-59946741D01*
X161997468Y-59946741D02*
X161997468Y-60089598D01*
X161997468Y-60089598D02*
X162045088Y-60184836D01*
X162045088Y-60184836D02*
X162092707Y-60232455D01*
X161997468Y-60851503D02*
X162045088Y-60756265D01*
X162045088Y-60756265D02*
X162140326Y-60708646D01*
X162140326Y-60708646D02*
X162997468Y-60708646D01*
X161997468Y-61661027D02*
X162521278Y-61661027D01*
X162521278Y-61661027D02*
X162616516Y-61613408D01*
X162616516Y-61613408D02*
X162664135Y-61518170D01*
X162664135Y-61518170D02*
X162664135Y-61327694D01*
X162664135Y-61327694D02*
X162616516Y-61232456D01*
X162045088Y-61661027D02*
X161997468Y-61565789D01*
X161997468Y-61565789D02*
X161997468Y-61327694D01*
X161997468Y-61327694D02*
X162045088Y-61232456D01*
X162045088Y-61232456D02*
X162140326Y-61184837D01*
X162140326Y-61184837D02*
X162235564Y-61184837D01*
X162235564Y-61184837D02*
X162330802Y-61232456D01*
X162330802Y-61232456D02*
X162378421Y-61327694D01*
X162378421Y-61327694D02*
X162378421Y-61565789D01*
X162378421Y-61565789D02*
X162426040Y-61661027D01*
X161997468Y-62137218D02*
X162664135Y-62137218D01*
X162473659Y-62137218D02*
X162568897Y-62184837D01*
X162568897Y-62184837D02*
X162616516Y-62232456D01*
X162616516Y-62232456D02*
X162664135Y-62327694D01*
X162664135Y-62327694D02*
X162664135Y-62422932D01*
X161387524Y-46994360D02*
X161387524Y-47089598D01*
X161387524Y-47089598D02*
X161339905Y-47184836D01*
X161339905Y-47184836D02*
X161292286Y-47232455D01*
X161292286Y-47232455D02*
X161197048Y-47280074D01*
X161197048Y-47280074D02*
X161006572Y-47327693D01*
X161006572Y-47327693D02*
X160768477Y-47327693D01*
X160768477Y-47327693D02*
X160578001Y-47280074D01*
X160578001Y-47280074D02*
X160482763Y-47232455D01*
X160482763Y-47232455D02*
X160435144Y-47184836D01*
X160435144Y-47184836D02*
X160387524Y-47089598D01*
X160387524Y-47089598D02*
X160387524Y-46994360D01*
X160387524Y-46994360D02*
X160435144Y-46899122D01*
X160435144Y-46899122D02*
X160482763Y-46851503D01*
X160482763Y-46851503D02*
X160578001Y-46803884D01*
X160578001Y-46803884D02*
X160768477Y-46756265D01*
X160768477Y-46756265D02*
X161006572Y-46756265D01*
X161006572Y-46756265D02*
X161197048Y-46803884D01*
X161197048Y-46803884D02*
X161292286Y-46851503D01*
X161292286Y-46851503D02*
X161339905Y-46899122D01*
X161339905Y-46899122D02*
X161387524Y-46994360D01*
X160958953Y-47899122D02*
X161006572Y-47803884D01*
X161006572Y-47803884D02*
X161054191Y-47756265D01*
X161054191Y-47756265D02*
X161149429Y-47708646D01*
X161149429Y-47708646D02*
X161197048Y-47708646D01*
X161197048Y-47708646D02*
X161292286Y-47756265D01*
X161292286Y-47756265D02*
X161339905Y-47803884D01*
X161339905Y-47803884D02*
X161387524Y-47899122D01*
X161387524Y-47899122D02*
X161387524Y-48089598D01*
X161387524Y-48089598D02*
X161339905Y-48184836D01*
X161339905Y-48184836D02*
X161292286Y-48232455D01*
X161292286Y-48232455D02*
X161197048Y-48280074D01*
X161197048Y-48280074D02*
X161149429Y-48280074D01*
X161149429Y-48280074D02*
X161054191Y-48232455D01*
X161054191Y-48232455D02*
X161006572Y-48184836D01*
X161006572Y-48184836D02*
X160958953Y-48089598D01*
X160958953Y-48089598D02*
X160958953Y-47899122D01*
X160958953Y-47899122D02*
X160911334Y-47803884D01*
X160911334Y-47803884D02*
X160863715Y-47756265D01*
X160863715Y-47756265D02*
X160768477Y-47708646D01*
X160768477Y-47708646D02*
X160578001Y-47708646D01*
X160578001Y-47708646D02*
X160482763Y-47756265D01*
X160482763Y-47756265D02*
X160435144Y-47803884D01*
X160435144Y-47803884D02*
X160387524Y-47899122D01*
X160387524Y-47899122D02*
X160387524Y-48089598D01*
X160387524Y-48089598D02*
X160435144Y-48184836D01*
X160435144Y-48184836D02*
X160482763Y-48232455D01*
X160482763Y-48232455D02*
X160578001Y-48280074D01*
X160578001Y-48280074D02*
X160768477Y-48280074D01*
X160768477Y-48280074D02*
X160863715Y-48232455D01*
X160863715Y-48232455D02*
X160911334Y-48184836D01*
X160911334Y-48184836D02*
X160958953Y-48089598D01*
X161435144Y-49422931D02*
X160149429Y-48565789D01*
X161292286Y-49708646D02*
X161339905Y-49756265D01*
X161339905Y-49756265D02*
X161387524Y-49851503D01*
X161387524Y-49851503D02*
X161387524Y-50089598D01*
X161387524Y-50089598D02*
X161339905Y-50184836D01*
X161339905Y-50184836D02*
X161292286Y-50232455D01*
X161292286Y-50232455D02*
X161197048Y-50280074D01*
X161197048Y-50280074D02*
X161101810Y-50280074D01*
X161101810Y-50280074D02*
X160958953Y-50232455D01*
X160958953Y-50232455D02*
X160387524Y-49661027D01*
X160387524Y-49661027D02*
X160387524Y-50280074D01*
X161387524Y-50899122D02*
X161387524Y-50994360D01*
X161387524Y-50994360D02*
X161339905Y-51089598D01*
X161339905Y-51089598D02*
X161292286Y-51137217D01*
X161292286Y-51137217D02*
X161197048Y-51184836D01*
X161197048Y-51184836D02*
X161006572Y-51232455D01*
X161006572Y-51232455D02*
X160768477Y-51232455D01*
X160768477Y-51232455D02*
X160578001Y-51184836D01*
X160578001Y-51184836D02*
X160482763Y-51137217D01*
X160482763Y-51137217D02*
X160435144Y-51089598D01*
X160435144Y-51089598D02*
X160387524Y-50994360D01*
X160387524Y-50994360D02*
X160387524Y-50899122D01*
X160387524Y-50899122D02*
X160435144Y-50803884D01*
X160435144Y-50803884D02*
X160482763Y-50756265D01*
X160482763Y-50756265D02*
X160578001Y-50708646D01*
X160578001Y-50708646D02*
X160768477Y-50661027D01*
X160768477Y-50661027D02*
X161006572Y-50661027D01*
X161006572Y-50661027D02*
X161197048Y-50708646D01*
X161197048Y-50708646D02*
X161292286Y-50756265D01*
X161292286Y-50756265D02*
X161339905Y-50803884D01*
X161339905Y-50803884D02*
X161387524Y-50899122D01*
X161292286Y-51613408D02*
X161339905Y-51661027D01*
X161339905Y-51661027D02*
X161387524Y-51756265D01*
X161387524Y-51756265D02*
X161387524Y-51994360D01*
X161387524Y-51994360D02*
X161339905Y-52089598D01*
X161339905Y-52089598D02*
X161292286Y-52137217D01*
X161292286Y-52137217D02*
X161197048Y-52184836D01*
X161197048Y-52184836D02*
X161101810Y-52184836D01*
X161101810Y-52184836D02*
X160958953Y-52137217D01*
X160958953Y-52137217D02*
X160387524Y-51565789D01*
X160387524Y-51565789D02*
X160387524Y-52184836D01*
X161387524Y-53041979D02*
X161387524Y-52851503D01*
X161387524Y-52851503D02*
X161339905Y-52756265D01*
X161339905Y-52756265D02*
X161292286Y-52708646D01*
X161292286Y-52708646D02*
X161149429Y-52613408D01*
X161149429Y-52613408D02*
X160958953Y-52565789D01*
X160958953Y-52565789D02*
X160578001Y-52565789D01*
X160578001Y-52565789D02*
X160482763Y-52613408D01*
X160482763Y-52613408D02*
X160435144Y-52661027D01*
X160435144Y-52661027D02*
X160387524Y-52756265D01*
X160387524Y-52756265D02*
X160387524Y-52946741D01*
X160387524Y-52946741D02*
X160435144Y-53041979D01*
X160435144Y-53041979D02*
X160482763Y-53089598D01*
X160482763Y-53089598D02*
X160578001Y-53137217D01*
X160578001Y-53137217D02*
X160816096Y-53137217D01*
X160816096Y-53137217D02*
X160911334Y-53089598D01*
X160911334Y-53089598D02*
X160958953Y-53041979D01*
X160958953Y-53041979D02*
X161006572Y-52946741D01*
X161006572Y-52946741D02*
X161006572Y-52756265D01*
X161006572Y-52756265D02*
X160958953Y-52661027D01*
X160958953Y-52661027D02*
X160911334Y-52613408D01*
X160911334Y-52613408D02*
X160816096Y-52565789D01*
X158872819Y-47375312D02*
X158825200Y-47327693D01*
X158825200Y-47327693D02*
X158777580Y-47184836D01*
X158777580Y-47184836D02*
X158777580Y-47089598D01*
X158777580Y-47089598D02*
X158825200Y-46946741D01*
X158825200Y-46946741D02*
X158920438Y-46851503D01*
X158920438Y-46851503D02*
X159015676Y-46803884D01*
X159015676Y-46803884D02*
X159206152Y-46756265D01*
X159206152Y-46756265D02*
X159349009Y-46756265D01*
X159349009Y-46756265D02*
X159539485Y-46803884D01*
X159539485Y-46803884D02*
X159634723Y-46851503D01*
X159634723Y-46851503D02*
X159729961Y-46946741D01*
X159729961Y-46946741D02*
X159777580Y-47089598D01*
X159777580Y-47089598D02*
X159777580Y-47184836D01*
X159777580Y-47184836D02*
X159729961Y-47327693D01*
X159729961Y-47327693D02*
X159682342Y-47375312D01*
X158872819Y-48375312D02*
X158825200Y-48327693D01*
X158825200Y-48327693D02*
X158777580Y-48184836D01*
X158777580Y-48184836D02*
X158777580Y-48089598D01*
X158777580Y-48089598D02*
X158825200Y-47946741D01*
X158825200Y-47946741D02*
X158920438Y-47851503D01*
X158920438Y-47851503D02*
X159015676Y-47803884D01*
X159015676Y-47803884D02*
X159206152Y-47756265D01*
X159206152Y-47756265D02*
X159349009Y-47756265D01*
X159349009Y-47756265D02*
X159539485Y-47803884D01*
X159539485Y-47803884D02*
X159634723Y-47851503D01*
X159634723Y-47851503D02*
X159729961Y-47946741D01*
X159729961Y-47946741D02*
X159777580Y-48089598D01*
X159777580Y-48089598D02*
X159777580Y-48184836D01*
X159777580Y-48184836D02*
X159729961Y-48327693D01*
X159729961Y-48327693D02*
X159682342Y-48375312D01*
X159301390Y-49899122D02*
X159253771Y-50041979D01*
X159253771Y-50041979D02*
X159206152Y-50089598D01*
X159206152Y-50089598D02*
X159110914Y-50137217D01*
X159110914Y-50137217D02*
X158968057Y-50137217D01*
X158968057Y-50137217D02*
X158872819Y-50089598D01*
X158872819Y-50089598D02*
X158825200Y-50041979D01*
X158825200Y-50041979D02*
X158777580Y-49946741D01*
X158777580Y-49946741D02*
X158777580Y-49565789D01*
X158777580Y-49565789D02*
X159777580Y-49565789D01*
X159777580Y-49565789D02*
X159777580Y-49899122D01*
X159777580Y-49899122D02*
X159729961Y-49994360D01*
X159729961Y-49994360D02*
X159682342Y-50041979D01*
X159682342Y-50041979D02*
X159587104Y-50089598D01*
X159587104Y-50089598D02*
X159491866Y-50089598D01*
X159491866Y-50089598D02*
X159396628Y-50041979D01*
X159396628Y-50041979D02*
X159349009Y-49994360D01*
X159349009Y-49994360D02*
X159301390Y-49899122D01*
X159301390Y-49899122D02*
X159301390Y-49565789D01*
X159253771Y-50756265D02*
X158777580Y-50756265D01*
X159777580Y-50422932D02*
X159253771Y-50756265D01*
X159253771Y-50756265D02*
X159777580Y-51089598D01*
X159158533Y-51422932D02*
X159158533Y-52184837D01*
X158777580Y-52661027D02*
X159777580Y-52661027D01*
X159777580Y-52661027D02*
X158777580Y-53232455D01*
X158777580Y-53232455D02*
X159777580Y-53232455D01*
X158872819Y-54280074D02*
X158825200Y-54232455D01*
X158825200Y-54232455D02*
X158777580Y-54089598D01*
X158777580Y-54089598D02*
X158777580Y-53994360D01*
X158777580Y-53994360D02*
X158825200Y-53851503D01*
X158825200Y-53851503D02*
X158920438Y-53756265D01*
X158920438Y-53756265D02*
X159015676Y-53708646D01*
X159015676Y-53708646D02*
X159206152Y-53661027D01*
X159206152Y-53661027D02*
X159349009Y-53661027D01*
X159349009Y-53661027D02*
X159539485Y-53708646D01*
X159539485Y-53708646D02*
X159634723Y-53756265D01*
X159634723Y-53756265D02*
X159729961Y-53851503D01*
X159729961Y-53851503D02*
X159777580Y-53994360D01*
X159777580Y-53994360D02*
X159777580Y-54089598D01*
X159777580Y-54089598D02*
X159729961Y-54232455D01*
X159729961Y-54232455D02*
X159682342Y-54280074D01*
X159158533Y-54708646D02*
X159158533Y-55470551D01*
X158825200Y-55899122D02*
X158777580Y-56041979D01*
X158777580Y-56041979D02*
X158777580Y-56280074D01*
X158777580Y-56280074D02*
X158825200Y-56375312D01*
X158825200Y-56375312D02*
X158872819Y-56422931D01*
X158872819Y-56422931D02*
X158968057Y-56470550D01*
X158968057Y-56470550D02*
X159063295Y-56470550D01*
X159063295Y-56470550D02*
X159158533Y-56422931D01*
X159158533Y-56422931D02*
X159206152Y-56375312D01*
X159206152Y-56375312D02*
X159253771Y-56280074D01*
X159253771Y-56280074D02*
X159301390Y-56089598D01*
X159301390Y-56089598D02*
X159349009Y-55994360D01*
X159349009Y-55994360D02*
X159396628Y-55946741D01*
X159396628Y-55946741D02*
X159491866Y-55899122D01*
X159491866Y-55899122D02*
X159587104Y-55899122D01*
X159587104Y-55899122D02*
X159682342Y-55946741D01*
X159682342Y-55946741D02*
X159729961Y-55994360D01*
X159729961Y-55994360D02*
X159777580Y-56089598D01*
X159777580Y-56089598D02*
X159777580Y-56327693D01*
X159777580Y-56327693D02*
X159729961Y-56470550D01*
X159063295Y-56851503D02*
X159063295Y-57327693D01*
X158777580Y-56756265D02*
X159777580Y-57089598D01*
X159777580Y-57089598D02*
X158777580Y-57422931D01*
X159444247Y-58946741D02*
X158777580Y-58946741D01*
X159825200Y-58708646D02*
X159110914Y-58470551D01*
X159110914Y-58470551D02*
X159110914Y-59089598D01*
X158872819Y-59470551D02*
X158825200Y-59518170D01*
X158825200Y-59518170D02*
X158777580Y-59470551D01*
X158777580Y-59470551D02*
X158825200Y-59422932D01*
X158825200Y-59422932D02*
X158872819Y-59470551D01*
X158872819Y-59470551D02*
X158777580Y-59470551D01*
X159777580Y-60137217D02*
X159777580Y-60232455D01*
X159777580Y-60232455D02*
X159729961Y-60327693D01*
X159729961Y-60327693D02*
X159682342Y-60375312D01*
X159682342Y-60375312D02*
X159587104Y-60422931D01*
X159587104Y-60422931D02*
X159396628Y-60470550D01*
X159396628Y-60470550D02*
X159158533Y-60470550D01*
X159158533Y-60470550D02*
X158968057Y-60422931D01*
X158968057Y-60422931D02*
X158872819Y-60375312D01*
X158872819Y-60375312D02*
X158825200Y-60327693D01*
X158825200Y-60327693D02*
X158777580Y-60232455D01*
X158777580Y-60232455D02*
X158777580Y-60137217D01*
X158777580Y-60137217D02*
X158825200Y-60041979D01*
X158825200Y-60041979D02*
X158872819Y-59994360D01*
X158872819Y-59994360D02*
X158968057Y-59946741D01*
X158968057Y-59946741D02*
X159158533Y-59899122D01*
X159158533Y-59899122D02*
X159396628Y-59899122D01*
X159396628Y-59899122D02*
X159587104Y-59946741D01*
X159587104Y-59946741D02*
X159682342Y-59994360D01*
X159682342Y-59994360D02*
X159729961Y-60041979D01*
X159729961Y-60041979D02*
X159777580Y-60137217D01*
D11*
X144880952Y-95654819D02*
X144404762Y-95654819D01*
X144404762Y-95654819D02*
X144404762Y-94654819D01*
X145214286Y-95131009D02*
X145547619Y-95131009D01*
X145690476Y-95654819D02*
X145214286Y-95654819D01*
X145214286Y-95654819D02*
X145214286Y-94654819D01*
X145214286Y-94654819D02*
X145690476Y-94654819D01*
X146119048Y-95654819D02*
X146119048Y-94654819D01*
X146119048Y-94654819D02*
X146357143Y-94654819D01*
X146357143Y-94654819D02*
X146500000Y-94702438D01*
X146500000Y-94702438D02*
X146595238Y-94797676D01*
X146595238Y-94797676D02*
X146642857Y-94892914D01*
X146642857Y-94892914D02*
X146690476Y-95083390D01*
X146690476Y-95083390D02*
X146690476Y-95226247D01*
X146690476Y-95226247D02*
X146642857Y-95416723D01*
X146642857Y-95416723D02*
X146595238Y-95511961D01*
X146595238Y-95511961D02*
X146500000Y-95607200D01*
X146500000Y-95607200D02*
X146357143Y-95654819D01*
X146357143Y-95654819D02*
X146119048Y-95654819D01*
X147023810Y-94654819D02*
X147690476Y-94654819D01*
X147690476Y-94654819D02*
X147261905Y-95654819D01*
X128080952Y-124854819D02*
X127604762Y-124854819D01*
X127604762Y-124854819D02*
X127604762Y-123854819D01*
X128414286Y-124331009D02*
X128747619Y-124331009D01*
X128890476Y-124854819D02*
X128414286Y-124854819D01*
X128414286Y-124854819D02*
X128414286Y-123854819D01*
X128414286Y-123854819D02*
X128890476Y-123854819D01*
X129319048Y-124854819D02*
X129319048Y-123854819D01*
X129319048Y-123854819D02*
X129557143Y-123854819D01*
X129557143Y-123854819D02*
X129700000Y-123902438D01*
X129700000Y-123902438D02*
X129795238Y-123997676D01*
X129795238Y-123997676D02*
X129842857Y-124092914D01*
X129842857Y-124092914D02*
X129890476Y-124283390D01*
X129890476Y-124283390D02*
X129890476Y-124426247D01*
X129890476Y-124426247D02*
X129842857Y-124616723D01*
X129842857Y-124616723D02*
X129795238Y-124711961D01*
X129795238Y-124711961D02*
X129700000Y-124807200D01*
X129700000Y-124807200D02*
X129557143Y-124854819D01*
X129557143Y-124854819D02*
X129319048Y-124854819D01*
X130366667Y-124854819D02*
X130557143Y-124854819D01*
X130557143Y-124854819D02*
X130652381Y-124807200D01*
X130652381Y-124807200D02*
X130700000Y-124759580D01*
X130700000Y-124759580D02*
X130795238Y-124616723D01*
X130795238Y-124616723D02*
X130842857Y-124426247D01*
X130842857Y-124426247D02*
X130842857Y-124045295D01*
X130842857Y-124045295D02*
X130795238Y-123950057D01*
X130795238Y-123950057D02*
X130747619Y-123902438D01*
X130747619Y-123902438D02*
X130652381Y-123854819D01*
X130652381Y-123854819D02*
X130461905Y-123854819D01*
X130461905Y-123854819D02*
X130366667Y-123902438D01*
X130366667Y-123902438D02*
X130319048Y-123950057D01*
X130319048Y-123950057D02*
X130271429Y-124045295D01*
X130271429Y-124045295D02*
X130271429Y-124283390D01*
X130271429Y-124283390D02*
X130319048Y-124378628D01*
X130319048Y-124378628D02*
X130366667Y-124426247D01*
X130366667Y-124426247D02*
X130461905Y-124473866D01*
X130461905Y-124473866D02*
X130652381Y-124473866D01*
X130652381Y-124473866D02*
X130747619Y-124426247D01*
X130747619Y-124426247D02*
X130795238Y-124378628D01*
X130795238Y-124378628D02*
X130842857Y-124283390D01*
X144680952Y-61554819D02*
X144204762Y-61554819D01*
X144204762Y-61554819D02*
X144204762Y-60554819D01*
X145014286Y-61031009D02*
X145347619Y-61031009D01*
X145490476Y-61554819D02*
X145014286Y-61554819D01*
X145014286Y-61554819D02*
X145014286Y-60554819D01*
X145014286Y-60554819D02*
X145490476Y-60554819D01*
X145919048Y-61554819D02*
X145919048Y-60554819D01*
X145919048Y-60554819D02*
X146157143Y-60554819D01*
X146157143Y-60554819D02*
X146300000Y-60602438D01*
X146300000Y-60602438D02*
X146395238Y-60697676D01*
X146395238Y-60697676D02*
X146442857Y-60792914D01*
X146442857Y-60792914D02*
X146490476Y-60983390D01*
X146490476Y-60983390D02*
X146490476Y-61126247D01*
X146490476Y-61126247D02*
X146442857Y-61316723D01*
X146442857Y-61316723D02*
X146395238Y-61411961D01*
X146395238Y-61411961D02*
X146300000Y-61507200D01*
X146300000Y-61507200D02*
X146157143Y-61554819D01*
X146157143Y-61554819D02*
X145919048Y-61554819D01*
X146871429Y-60650057D02*
X146919048Y-60602438D01*
X146919048Y-60602438D02*
X147014286Y-60554819D01*
X147014286Y-60554819D02*
X147252381Y-60554819D01*
X147252381Y-60554819D02*
X147347619Y-60602438D01*
X147347619Y-60602438D02*
X147395238Y-60650057D01*
X147395238Y-60650057D02*
X147442857Y-60745295D01*
X147442857Y-60745295D02*
X147442857Y-60840533D01*
X147442857Y-60840533D02*
X147395238Y-60983390D01*
X147395238Y-60983390D02*
X146823810Y-61554819D01*
X146823810Y-61554819D02*
X147442857Y-61554819D01*
X156809167Y-108807200D02*
X156952024Y-108854819D01*
X156952024Y-108854819D02*
X157190119Y-108854819D01*
X157190119Y-108854819D02*
X157285357Y-108807200D01*
X157285357Y-108807200D02*
X157332976Y-108759580D01*
X157332976Y-108759580D02*
X157380595Y-108664342D01*
X157380595Y-108664342D02*
X157380595Y-108569104D01*
X157380595Y-108569104D02*
X157332976Y-108473866D01*
X157332976Y-108473866D02*
X157285357Y-108426247D01*
X157285357Y-108426247D02*
X157190119Y-108378628D01*
X157190119Y-108378628D02*
X156999643Y-108331009D01*
X156999643Y-108331009D02*
X156904405Y-108283390D01*
X156904405Y-108283390D02*
X156856786Y-108235771D01*
X156856786Y-108235771D02*
X156809167Y-108140533D01*
X156809167Y-108140533D02*
X156809167Y-108045295D01*
X156809167Y-108045295D02*
X156856786Y-107950057D01*
X156856786Y-107950057D02*
X156904405Y-107902438D01*
X156904405Y-107902438D02*
X156999643Y-107854819D01*
X156999643Y-107854819D02*
X157237738Y-107854819D01*
X157237738Y-107854819D02*
X157380595Y-107902438D01*
X157713929Y-107854819D02*
X157952024Y-108854819D01*
X157952024Y-108854819D02*
X158142500Y-108140533D01*
X158142500Y-108140533D02*
X158332976Y-108854819D01*
X158332976Y-108854819D02*
X158571072Y-107854819D01*
X159094881Y-108283390D02*
X158999643Y-108235771D01*
X158999643Y-108235771D02*
X158952024Y-108188152D01*
X158952024Y-108188152D02*
X158904405Y-108092914D01*
X158904405Y-108092914D02*
X158904405Y-108045295D01*
X158904405Y-108045295D02*
X158952024Y-107950057D01*
X158952024Y-107950057D02*
X158999643Y-107902438D01*
X158999643Y-107902438D02*
X159094881Y-107854819D01*
X159094881Y-107854819D02*
X159285357Y-107854819D01*
X159285357Y-107854819D02*
X159380595Y-107902438D01*
X159380595Y-107902438D02*
X159428214Y-107950057D01*
X159428214Y-107950057D02*
X159475833Y-108045295D01*
X159475833Y-108045295D02*
X159475833Y-108092914D01*
X159475833Y-108092914D02*
X159428214Y-108188152D01*
X159428214Y-108188152D02*
X159380595Y-108235771D01*
X159380595Y-108235771D02*
X159285357Y-108283390D01*
X159285357Y-108283390D02*
X159094881Y-108283390D01*
X159094881Y-108283390D02*
X158999643Y-108331009D01*
X158999643Y-108331009D02*
X158952024Y-108378628D01*
X158952024Y-108378628D02*
X158904405Y-108473866D01*
X158904405Y-108473866D02*
X158904405Y-108664342D01*
X158904405Y-108664342D02*
X158952024Y-108759580D01*
X158952024Y-108759580D02*
X158999643Y-108807200D01*
X158999643Y-108807200D02*
X159094881Y-108854819D01*
X159094881Y-108854819D02*
X159285357Y-108854819D01*
X159285357Y-108854819D02*
X159380595Y-108807200D01*
X159380595Y-108807200D02*
X159428214Y-108759580D01*
X159428214Y-108759580D02*
X159475833Y-108664342D01*
X159475833Y-108664342D02*
X159475833Y-108473866D01*
X159475833Y-108473866D02*
X159428214Y-108378628D01*
X159428214Y-108378628D02*
X159380595Y-108331009D01*
X159380595Y-108331009D02*
X159285357Y-108283390D01*
X156809167Y-60807200D02*
X156952024Y-60854819D01*
X156952024Y-60854819D02*
X157190119Y-60854819D01*
X157190119Y-60854819D02*
X157285357Y-60807200D01*
X157285357Y-60807200D02*
X157332976Y-60759580D01*
X157332976Y-60759580D02*
X157380595Y-60664342D01*
X157380595Y-60664342D02*
X157380595Y-60569104D01*
X157380595Y-60569104D02*
X157332976Y-60473866D01*
X157332976Y-60473866D02*
X157285357Y-60426247D01*
X157285357Y-60426247D02*
X157190119Y-60378628D01*
X157190119Y-60378628D02*
X156999643Y-60331009D01*
X156999643Y-60331009D02*
X156904405Y-60283390D01*
X156904405Y-60283390D02*
X156856786Y-60235771D01*
X156856786Y-60235771D02*
X156809167Y-60140533D01*
X156809167Y-60140533D02*
X156809167Y-60045295D01*
X156809167Y-60045295D02*
X156856786Y-59950057D01*
X156856786Y-59950057D02*
X156904405Y-59902438D01*
X156904405Y-59902438D02*
X156999643Y-59854819D01*
X156999643Y-59854819D02*
X157237738Y-59854819D01*
X157237738Y-59854819D02*
X157380595Y-59902438D01*
X157713929Y-59854819D02*
X157952024Y-60854819D01*
X157952024Y-60854819D02*
X158142500Y-60140533D01*
X158142500Y-60140533D02*
X158332976Y-60854819D01*
X158332976Y-60854819D02*
X158571072Y-59854819D01*
X158904405Y-59950057D02*
X158952024Y-59902438D01*
X158952024Y-59902438D02*
X159047262Y-59854819D01*
X159047262Y-59854819D02*
X159285357Y-59854819D01*
X159285357Y-59854819D02*
X159380595Y-59902438D01*
X159380595Y-59902438D02*
X159428214Y-59950057D01*
X159428214Y-59950057D02*
X159475833Y-60045295D01*
X159475833Y-60045295D02*
X159475833Y-60140533D01*
X159475833Y-60140533D02*
X159428214Y-60283390D01*
X159428214Y-60283390D02*
X158856786Y-60854819D01*
X158856786Y-60854819D02*
X159475833Y-60854819D01*
X144880952Y-87454819D02*
X144404762Y-87454819D01*
X144404762Y-87454819D02*
X144404762Y-86454819D01*
X145214286Y-86931009D02*
X145547619Y-86931009D01*
X145690476Y-87454819D02*
X145214286Y-87454819D01*
X145214286Y-87454819D02*
X145214286Y-86454819D01*
X145214286Y-86454819D02*
X145690476Y-86454819D01*
X146119048Y-87454819D02*
X146119048Y-86454819D01*
X146119048Y-86454819D02*
X146357143Y-86454819D01*
X146357143Y-86454819D02*
X146500000Y-86502438D01*
X146500000Y-86502438D02*
X146595238Y-86597676D01*
X146595238Y-86597676D02*
X146642857Y-86692914D01*
X146642857Y-86692914D02*
X146690476Y-86883390D01*
X146690476Y-86883390D02*
X146690476Y-87026247D01*
X146690476Y-87026247D02*
X146642857Y-87216723D01*
X146642857Y-87216723D02*
X146595238Y-87311961D01*
X146595238Y-87311961D02*
X146500000Y-87407200D01*
X146500000Y-87407200D02*
X146357143Y-87454819D01*
X146357143Y-87454819D02*
X146119048Y-87454819D01*
X147547619Y-86454819D02*
X147357143Y-86454819D01*
X147357143Y-86454819D02*
X147261905Y-86502438D01*
X147261905Y-86502438D02*
X147214286Y-86550057D01*
X147214286Y-86550057D02*
X147119048Y-86692914D01*
X147119048Y-86692914D02*
X147071429Y-86883390D01*
X147071429Y-86883390D02*
X147071429Y-87264342D01*
X147071429Y-87264342D02*
X147119048Y-87359580D01*
X147119048Y-87359580D02*
X147166667Y-87407200D01*
X147166667Y-87407200D02*
X147261905Y-87454819D01*
X147261905Y-87454819D02*
X147452381Y-87454819D01*
X147452381Y-87454819D02*
X147547619Y-87407200D01*
X147547619Y-87407200D02*
X147595238Y-87359580D01*
X147595238Y-87359580D02*
X147642857Y-87264342D01*
X147642857Y-87264342D02*
X147642857Y-87026247D01*
X147642857Y-87026247D02*
X147595238Y-86931009D01*
X147595238Y-86931009D02*
X147547619Y-86883390D01*
X147547619Y-86883390D02*
X147452381Y-86835771D01*
X147452381Y-86835771D02*
X147261905Y-86835771D01*
X147261905Y-86835771D02*
X147166667Y-86883390D01*
X147166667Y-86883390D02*
X147119048Y-86931009D01*
X147119048Y-86931009D02*
X147071429Y-87026247D01*
X161404761Y-124654819D02*
X160928571Y-124654819D01*
X160928571Y-124654819D02*
X160928571Y-123654819D01*
X161738095Y-124131009D02*
X162071428Y-124131009D01*
X162214285Y-124654819D02*
X161738095Y-124654819D01*
X161738095Y-124654819D02*
X161738095Y-123654819D01*
X161738095Y-123654819D02*
X162214285Y-123654819D01*
X162642857Y-124654819D02*
X162642857Y-123654819D01*
X162642857Y-123654819D02*
X162880952Y-123654819D01*
X162880952Y-123654819D02*
X163023809Y-123702438D01*
X163023809Y-123702438D02*
X163119047Y-123797676D01*
X163119047Y-123797676D02*
X163166666Y-123892914D01*
X163166666Y-123892914D02*
X163214285Y-124083390D01*
X163214285Y-124083390D02*
X163214285Y-124226247D01*
X163214285Y-124226247D02*
X163166666Y-124416723D01*
X163166666Y-124416723D02*
X163119047Y-124511961D01*
X163119047Y-124511961D02*
X163023809Y-124607200D01*
X163023809Y-124607200D02*
X162880952Y-124654819D01*
X162880952Y-124654819D02*
X162642857Y-124654819D01*
X164166666Y-124654819D02*
X163595238Y-124654819D01*
X163880952Y-124654819D02*
X163880952Y-123654819D01*
X163880952Y-123654819D02*
X163785714Y-123797676D01*
X163785714Y-123797676D02*
X163690476Y-123892914D01*
X163690476Y-123892914D02*
X163595238Y-123940533D01*
X164785714Y-123654819D02*
X164880952Y-123654819D01*
X164880952Y-123654819D02*
X164976190Y-123702438D01*
X164976190Y-123702438D02*
X165023809Y-123750057D01*
X165023809Y-123750057D02*
X165071428Y-123845295D01*
X165071428Y-123845295D02*
X165119047Y-124035771D01*
X165119047Y-124035771D02*
X165119047Y-124273866D01*
X165119047Y-124273866D02*
X165071428Y-124464342D01*
X165071428Y-124464342D02*
X165023809Y-124559580D01*
X165023809Y-124559580D02*
X164976190Y-124607200D01*
X164976190Y-124607200D02*
X164880952Y-124654819D01*
X164880952Y-124654819D02*
X164785714Y-124654819D01*
X164785714Y-124654819D02*
X164690476Y-124607200D01*
X164690476Y-124607200D02*
X164642857Y-124559580D01*
X164642857Y-124559580D02*
X164595238Y-124464342D01*
X164595238Y-124464342D02*
X164547619Y-124273866D01*
X164547619Y-124273866D02*
X164547619Y-124035771D01*
X164547619Y-124035771D02*
X164595238Y-123845295D01*
X164595238Y-123845295D02*
X164642857Y-123750057D01*
X164642857Y-123750057D02*
X164690476Y-123702438D01*
X164690476Y-123702438D02*
X164785714Y-123654819D01*
X144680952Y-47454819D02*
X144204762Y-47454819D01*
X144204762Y-47454819D02*
X144204762Y-46454819D01*
X145014286Y-46931009D02*
X145347619Y-46931009D01*
X145490476Y-47454819D02*
X145014286Y-47454819D01*
X145014286Y-47454819D02*
X145014286Y-46454819D01*
X145014286Y-46454819D02*
X145490476Y-46454819D01*
X145919048Y-47454819D02*
X145919048Y-46454819D01*
X145919048Y-46454819D02*
X146157143Y-46454819D01*
X146157143Y-46454819D02*
X146300000Y-46502438D01*
X146300000Y-46502438D02*
X146395238Y-46597676D01*
X146395238Y-46597676D02*
X146442857Y-46692914D01*
X146442857Y-46692914D02*
X146490476Y-46883390D01*
X146490476Y-46883390D02*
X146490476Y-47026247D01*
X146490476Y-47026247D02*
X146442857Y-47216723D01*
X146442857Y-47216723D02*
X146395238Y-47311961D01*
X146395238Y-47311961D02*
X146300000Y-47407200D01*
X146300000Y-47407200D02*
X146157143Y-47454819D01*
X146157143Y-47454819D02*
X145919048Y-47454819D01*
X147442857Y-47454819D02*
X146871429Y-47454819D01*
X147157143Y-47454819D02*
X147157143Y-46454819D01*
X147157143Y-46454819D02*
X147061905Y-46597676D01*
X147061905Y-46597676D02*
X146966667Y-46692914D01*
X146966667Y-46692914D02*
X146871429Y-46740533D01*
X132066667Y-84407200D02*
X132209524Y-84454819D01*
X132209524Y-84454819D02*
X132447619Y-84454819D01*
X132447619Y-84454819D02*
X132542857Y-84407200D01*
X132542857Y-84407200D02*
X132590476Y-84359580D01*
X132590476Y-84359580D02*
X132638095Y-84264342D01*
X132638095Y-84264342D02*
X132638095Y-84169104D01*
X132638095Y-84169104D02*
X132590476Y-84073866D01*
X132590476Y-84073866D02*
X132542857Y-84026247D01*
X132542857Y-84026247D02*
X132447619Y-83978628D01*
X132447619Y-83978628D02*
X132257143Y-83931009D01*
X132257143Y-83931009D02*
X132161905Y-83883390D01*
X132161905Y-83883390D02*
X132114286Y-83835771D01*
X132114286Y-83835771D02*
X132066667Y-83740533D01*
X132066667Y-83740533D02*
X132066667Y-83645295D01*
X132066667Y-83645295D02*
X132114286Y-83550057D01*
X132114286Y-83550057D02*
X132161905Y-83502438D01*
X132161905Y-83502438D02*
X132257143Y-83454819D01*
X132257143Y-83454819D02*
X132495238Y-83454819D01*
X132495238Y-83454819D02*
X132638095Y-83502438D01*
X132971429Y-83454819D02*
X133209524Y-84454819D01*
X133209524Y-84454819D02*
X133400000Y-83740533D01*
X133400000Y-83740533D02*
X133590476Y-84454819D01*
X133590476Y-84454819D02*
X133828572Y-83454819D01*
X134685714Y-83454819D02*
X134209524Y-83454819D01*
X134209524Y-83454819D02*
X134161905Y-83931009D01*
X134161905Y-83931009D02*
X134209524Y-83883390D01*
X134209524Y-83883390D02*
X134304762Y-83835771D01*
X134304762Y-83835771D02*
X134542857Y-83835771D01*
X134542857Y-83835771D02*
X134638095Y-83883390D01*
X134638095Y-83883390D02*
X134685714Y-83931009D01*
X134685714Y-83931009D02*
X134733333Y-84026247D01*
X134733333Y-84026247D02*
X134733333Y-84264342D01*
X134733333Y-84264342D02*
X134685714Y-84359580D01*
X134685714Y-84359580D02*
X134638095Y-84407200D01*
X134638095Y-84407200D02*
X134542857Y-84454819D01*
X134542857Y-84454819D02*
X134304762Y-84454819D01*
X134304762Y-84454819D02*
X134209524Y-84407200D01*
X134209524Y-84407200D02*
X134161905Y-84359580D01*
X144680952Y-103454819D02*
X144204762Y-103454819D01*
X144204762Y-103454819D02*
X144204762Y-102454819D01*
X145014286Y-102931009D02*
X145347619Y-102931009D01*
X145490476Y-103454819D02*
X145014286Y-103454819D01*
X145014286Y-103454819D02*
X145014286Y-102454819D01*
X145014286Y-102454819D02*
X145490476Y-102454819D01*
X145919048Y-103454819D02*
X145919048Y-102454819D01*
X145919048Y-102454819D02*
X146157143Y-102454819D01*
X146157143Y-102454819D02*
X146300000Y-102502438D01*
X146300000Y-102502438D02*
X146395238Y-102597676D01*
X146395238Y-102597676D02*
X146442857Y-102692914D01*
X146442857Y-102692914D02*
X146490476Y-102883390D01*
X146490476Y-102883390D02*
X146490476Y-103026247D01*
X146490476Y-103026247D02*
X146442857Y-103216723D01*
X146442857Y-103216723D02*
X146395238Y-103311961D01*
X146395238Y-103311961D02*
X146300000Y-103407200D01*
X146300000Y-103407200D02*
X146157143Y-103454819D01*
X146157143Y-103454819D02*
X145919048Y-103454819D01*
X147061905Y-102883390D02*
X146966667Y-102835771D01*
X146966667Y-102835771D02*
X146919048Y-102788152D01*
X146919048Y-102788152D02*
X146871429Y-102692914D01*
X146871429Y-102692914D02*
X146871429Y-102645295D01*
X146871429Y-102645295D02*
X146919048Y-102550057D01*
X146919048Y-102550057D02*
X146966667Y-102502438D01*
X146966667Y-102502438D02*
X147061905Y-102454819D01*
X147061905Y-102454819D02*
X147252381Y-102454819D01*
X147252381Y-102454819D02*
X147347619Y-102502438D01*
X147347619Y-102502438D02*
X147395238Y-102550057D01*
X147395238Y-102550057D02*
X147442857Y-102645295D01*
X147442857Y-102645295D02*
X147442857Y-102692914D01*
X147442857Y-102692914D02*
X147395238Y-102788152D01*
X147395238Y-102788152D02*
X147347619Y-102835771D01*
X147347619Y-102835771D02*
X147252381Y-102883390D01*
X147252381Y-102883390D02*
X147061905Y-102883390D01*
X147061905Y-102883390D02*
X146966667Y-102931009D01*
X146966667Y-102931009D02*
X146919048Y-102978628D01*
X146919048Y-102978628D02*
X146871429Y-103073866D01*
X146871429Y-103073866D02*
X146871429Y-103264342D01*
X146871429Y-103264342D02*
X146919048Y-103359580D01*
X146919048Y-103359580D02*
X146966667Y-103407200D01*
X146966667Y-103407200D02*
X147061905Y-103454819D01*
X147061905Y-103454819D02*
X147252381Y-103454819D01*
X147252381Y-103454819D02*
X147347619Y-103407200D01*
X147347619Y-103407200D02*
X147395238Y-103359580D01*
X147395238Y-103359580D02*
X147442857Y-103264342D01*
X147442857Y-103264342D02*
X147442857Y-103073866D01*
X147442857Y-103073866D02*
X147395238Y-102978628D01*
X147395238Y-102978628D02*
X147347619Y-102931009D01*
X147347619Y-102931009D02*
X147252381Y-102883390D01*
X156866667Y-92807200D02*
X157009524Y-92854819D01*
X157009524Y-92854819D02*
X157247619Y-92854819D01*
X157247619Y-92854819D02*
X157342857Y-92807200D01*
X157342857Y-92807200D02*
X157390476Y-92759580D01*
X157390476Y-92759580D02*
X157438095Y-92664342D01*
X157438095Y-92664342D02*
X157438095Y-92569104D01*
X157438095Y-92569104D02*
X157390476Y-92473866D01*
X157390476Y-92473866D02*
X157342857Y-92426247D01*
X157342857Y-92426247D02*
X157247619Y-92378628D01*
X157247619Y-92378628D02*
X157057143Y-92331009D01*
X157057143Y-92331009D02*
X156961905Y-92283390D01*
X156961905Y-92283390D02*
X156914286Y-92235771D01*
X156914286Y-92235771D02*
X156866667Y-92140533D01*
X156866667Y-92140533D02*
X156866667Y-92045295D01*
X156866667Y-92045295D02*
X156914286Y-91950057D01*
X156914286Y-91950057D02*
X156961905Y-91902438D01*
X156961905Y-91902438D02*
X157057143Y-91854819D01*
X157057143Y-91854819D02*
X157295238Y-91854819D01*
X157295238Y-91854819D02*
X157438095Y-91902438D01*
X157771429Y-91854819D02*
X158009524Y-92854819D01*
X158009524Y-92854819D02*
X158200000Y-92140533D01*
X158200000Y-92140533D02*
X158390476Y-92854819D01*
X158390476Y-92854819D02*
X158628572Y-91854819D01*
X159438095Y-91854819D02*
X159247619Y-91854819D01*
X159247619Y-91854819D02*
X159152381Y-91902438D01*
X159152381Y-91902438D02*
X159104762Y-91950057D01*
X159104762Y-91950057D02*
X159009524Y-92092914D01*
X159009524Y-92092914D02*
X158961905Y-92283390D01*
X158961905Y-92283390D02*
X158961905Y-92664342D01*
X158961905Y-92664342D02*
X159009524Y-92759580D01*
X159009524Y-92759580D02*
X159057143Y-92807200D01*
X159057143Y-92807200D02*
X159152381Y-92854819D01*
X159152381Y-92854819D02*
X159342857Y-92854819D01*
X159342857Y-92854819D02*
X159438095Y-92807200D01*
X159438095Y-92807200D02*
X159485714Y-92759580D01*
X159485714Y-92759580D02*
X159533333Y-92664342D01*
X159533333Y-92664342D02*
X159533333Y-92426247D01*
X159533333Y-92426247D02*
X159485714Y-92331009D01*
X159485714Y-92331009D02*
X159438095Y-92283390D01*
X159438095Y-92283390D02*
X159342857Y-92235771D01*
X159342857Y-92235771D02*
X159152381Y-92235771D01*
X159152381Y-92235771D02*
X159057143Y-92283390D01*
X159057143Y-92283390D02*
X159009524Y-92331009D01*
X159009524Y-92331009D02*
X158961905Y-92426247D01*
X156390476Y-137207200D02*
X156533333Y-137254819D01*
X156533333Y-137254819D02*
X156771428Y-137254819D01*
X156771428Y-137254819D02*
X156866666Y-137207200D01*
X156866666Y-137207200D02*
X156914285Y-137159580D01*
X156914285Y-137159580D02*
X156961904Y-137064342D01*
X156961904Y-137064342D02*
X156961904Y-136969104D01*
X156961904Y-136969104D02*
X156914285Y-136873866D01*
X156914285Y-136873866D02*
X156866666Y-136826247D01*
X156866666Y-136826247D02*
X156771428Y-136778628D01*
X156771428Y-136778628D02*
X156580952Y-136731009D01*
X156580952Y-136731009D02*
X156485714Y-136683390D01*
X156485714Y-136683390D02*
X156438095Y-136635771D01*
X156438095Y-136635771D02*
X156390476Y-136540533D01*
X156390476Y-136540533D02*
X156390476Y-136445295D01*
X156390476Y-136445295D02*
X156438095Y-136350057D01*
X156438095Y-136350057D02*
X156485714Y-136302438D01*
X156485714Y-136302438D02*
X156580952Y-136254819D01*
X156580952Y-136254819D02*
X156819047Y-136254819D01*
X156819047Y-136254819D02*
X156961904Y-136302438D01*
X157295238Y-136254819D02*
X157533333Y-137254819D01*
X157533333Y-137254819D02*
X157723809Y-136540533D01*
X157723809Y-136540533D02*
X157914285Y-137254819D01*
X157914285Y-137254819D02*
X158152381Y-136254819D01*
X159057142Y-137254819D02*
X158485714Y-137254819D01*
X158771428Y-137254819D02*
X158771428Y-136254819D01*
X158771428Y-136254819D02*
X158676190Y-136397676D01*
X158676190Y-136397676D02*
X158580952Y-136492914D01*
X158580952Y-136492914D02*
X158485714Y-136540533D01*
X159676190Y-136254819D02*
X159771428Y-136254819D01*
X159771428Y-136254819D02*
X159866666Y-136302438D01*
X159866666Y-136302438D02*
X159914285Y-136350057D01*
X159914285Y-136350057D02*
X159961904Y-136445295D01*
X159961904Y-136445295D02*
X160009523Y-136635771D01*
X160009523Y-136635771D02*
X160009523Y-136873866D01*
X160009523Y-136873866D02*
X159961904Y-137064342D01*
X159961904Y-137064342D02*
X159914285Y-137159580D01*
X159914285Y-137159580D02*
X159866666Y-137207200D01*
X159866666Y-137207200D02*
X159771428Y-137254819D01*
X159771428Y-137254819D02*
X159676190Y-137254819D01*
X159676190Y-137254819D02*
X159580952Y-137207200D01*
X159580952Y-137207200D02*
X159533333Y-137159580D01*
X159533333Y-137159580D02*
X159485714Y-137064342D01*
X159485714Y-137064342D02*
X159438095Y-136873866D01*
X159438095Y-136873866D02*
X159438095Y-136635771D01*
X159438095Y-136635771D02*
X159485714Y-136445295D01*
X159485714Y-136445295D02*
X159533333Y-136350057D01*
X159533333Y-136350057D02*
X159580952Y-136302438D01*
X159580952Y-136302438D02*
X159676190Y-136254819D01*
X132066667Y-68607200D02*
X132209524Y-68654819D01*
X132209524Y-68654819D02*
X132447619Y-68654819D01*
X132447619Y-68654819D02*
X132542857Y-68607200D01*
X132542857Y-68607200D02*
X132590476Y-68559580D01*
X132590476Y-68559580D02*
X132638095Y-68464342D01*
X132638095Y-68464342D02*
X132638095Y-68369104D01*
X132638095Y-68369104D02*
X132590476Y-68273866D01*
X132590476Y-68273866D02*
X132542857Y-68226247D01*
X132542857Y-68226247D02*
X132447619Y-68178628D01*
X132447619Y-68178628D02*
X132257143Y-68131009D01*
X132257143Y-68131009D02*
X132161905Y-68083390D01*
X132161905Y-68083390D02*
X132114286Y-68035771D01*
X132114286Y-68035771D02*
X132066667Y-67940533D01*
X132066667Y-67940533D02*
X132066667Y-67845295D01*
X132066667Y-67845295D02*
X132114286Y-67750057D01*
X132114286Y-67750057D02*
X132161905Y-67702438D01*
X132161905Y-67702438D02*
X132257143Y-67654819D01*
X132257143Y-67654819D02*
X132495238Y-67654819D01*
X132495238Y-67654819D02*
X132638095Y-67702438D01*
X132971429Y-67654819D02*
X133209524Y-68654819D01*
X133209524Y-68654819D02*
X133400000Y-67940533D01*
X133400000Y-67940533D02*
X133590476Y-68654819D01*
X133590476Y-68654819D02*
X133828572Y-67654819D01*
X134114286Y-67654819D02*
X134733333Y-67654819D01*
X134733333Y-67654819D02*
X134400000Y-68035771D01*
X134400000Y-68035771D02*
X134542857Y-68035771D01*
X134542857Y-68035771D02*
X134638095Y-68083390D01*
X134638095Y-68083390D02*
X134685714Y-68131009D01*
X134685714Y-68131009D02*
X134733333Y-68226247D01*
X134733333Y-68226247D02*
X134733333Y-68464342D01*
X134733333Y-68464342D02*
X134685714Y-68559580D01*
X134685714Y-68559580D02*
X134638095Y-68607200D01*
X134638095Y-68607200D02*
X134542857Y-68654819D01*
X134542857Y-68654819D02*
X134257143Y-68654819D01*
X134257143Y-68654819D02*
X134161905Y-68607200D01*
X134161905Y-68607200D02*
X134114286Y-68559580D01*
X156809167Y-76407200D02*
X156952024Y-76454819D01*
X156952024Y-76454819D02*
X157190119Y-76454819D01*
X157190119Y-76454819D02*
X157285357Y-76407200D01*
X157285357Y-76407200D02*
X157332976Y-76359580D01*
X157332976Y-76359580D02*
X157380595Y-76264342D01*
X157380595Y-76264342D02*
X157380595Y-76169104D01*
X157380595Y-76169104D02*
X157332976Y-76073866D01*
X157332976Y-76073866D02*
X157285357Y-76026247D01*
X157285357Y-76026247D02*
X157190119Y-75978628D01*
X157190119Y-75978628D02*
X156999643Y-75931009D01*
X156999643Y-75931009D02*
X156904405Y-75883390D01*
X156904405Y-75883390D02*
X156856786Y-75835771D01*
X156856786Y-75835771D02*
X156809167Y-75740533D01*
X156809167Y-75740533D02*
X156809167Y-75645295D01*
X156809167Y-75645295D02*
X156856786Y-75550057D01*
X156856786Y-75550057D02*
X156904405Y-75502438D01*
X156904405Y-75502438D02*
X156999643Y-75454819D01*
X156999643Y-75454819D02*
X157237738Y-75454819D01*
X157237738Y-75454819D02*
X157380595Y-75502438D01*
X157713929Y-75454819D02*
X157952024Y-76454819D01*
X157952024Y-76454819D02*
X158142500Y-75740533D01*
X158142500Y-75740533D02*
X158332976Y-76454819D01*
X158332976Y-76454819D02*
X158571072Y-75454819D01*
X159380595Y-75788152D02*
X159380595Y-76454819D01*
X159142500Y-75407200D02*
X158904405Y-76121485D01*
X158904405Y-76121485D02*
X159523452Y-76121485D01*
X144880952Y-71654819D02*
X144404762Y-71654819D01*
X144404762Y-71654819D02*
X144404762Y-70654819D01*
X145214286Y-71131009D02*
X145547619Y-71131009D01*
X145690476Y-71654819D02*
X145214286Y-71654819D01*
X145214286Y-71654819D02*
X145214286Y-70654819D01*
X145214286Y-70654819D02*
X145690476Y-70654819D01*
X146119048Y-71654819D02*
X146119048Y-70654819D01*
X146119048Y-70654819D02*
X146357143Y-70654819D01*
X146357143Y-70654819D02*
X146500000Y-70702438D01*
X146500000Y-70702438D02*
X146595238Y-70797676D01*
X146595238Y-70797676D02*
X146642857Y-70892914D01*
X146642857Y-70892914D02*
X146690476Y-71083390D01*
X146690476Y-71083390D02*
X146690476Y-71226247D01*
X146690476Y-71226247D02*
X146642857Y-71416723D01*
X146642857Y-71416723D02*
X146595238Y-71511961D01*
X146595238Y-71511961D02*
X146500000Y-71607200D01*
X146500000Y-71607200D02*
X146357143Y-71654819D01*
X146357143Y-71654819D02*
X146119048Y-71654819D01*
X147547619Y-70988152D02*
X147547619Y-71654819D01*
X147309524Y-70607200D02*
X147071429Y-71321485D01*
X147071429Y-71321485D02*
X147690476Y-71321485D01*
X132249167Y-52807200D02*
X132392024Y-52854819D01*
X132392024Y-52854819D02*
X132630119Y-52854819D01*
X132630119Y-52854819D02*
X132725357Y-52807200D01*
X132725357Y-52807200D02*
X132772976Y-52759580D01*
X132772976Y-52759580D02*
X132820595Y-52664342D01*
X132820595Y-52664342D02*
X132820595Y-52569104D01*
X132820595Y-52569104D02*
X132772976Y-52473866D01*
X132772976Y-52473866D02*
X132725357Y-52426247D01*
X132725357Y-52426247D02*
X132630119Y-52378628D01*
X132630119Y-52378628D02*
X132439643Y-52331009D01*
X132439643Y-52331009D02*
X132344405Y-52283390D01*
X132344405Y-52283390D02*
X132296786Y-52235771D01*
X132296786Y-52235771D02*
X132249167Y-52140533D01*
X132249167Y-52140533D02*
X132249167Y-52045295D01*
X132249167Y-52045295D02*
X132296786Y-51950057D01*
X132296786Y-51950057D02*
X132344405Y-51902438D01*
X132344405Y-51902438D02*
X132439643Y-51854819D01*
X132439643Y-51854819D02*
X132677738Y-51854819D01*
X132677738Y-51854819D02*
X132820595Y-51902438D01*
X133153929Y-51854819D02*
X133392024Y-52854819D01*
X133392024Y-52854819D02*
X133582500Y-52140533D01*
X133582500Y-52140533D02*
X133772976Y-52854819D01*
X133772976Y-52854819D02*
X134011072Y-51854819D01*
X134915833Y-52854819D02*
X134344405Y-52854819D01*
X134630119Y-52854819D02*
X134630119Y-51854819D01*
X134630119Y-51854819D02*
X134534881Y-51997676D01*
X134534881Y-51997676D02*
X134439643Y-52092914D01*
X134439643Y-52092914D02*
X134344405Y-52140533D01*
X132066667Y-136807200D02*
X132209524Y-136854819D01*
X132209524Y-136854819D02*
X132447619Y-136854819D01*
X132447619Y-136854819D02*
X132542857Y-136807200D01*
X132542857Y-136807200D02*
X132590476Y-136759580D01*
X132590476Y-136759580D02*
X132638095Y-136664342D01*
X132638095Y-136664342D02*
X132638095Y-136569104D01*
X132638095Y-136569104D02*
X132590476Y-136473866D01*
X132590476Y-136473866D02*
X132542857Y-136426247D01*
X132542857Y-136426247D02*
X132447619Y-136378628D01*
X132447619Y-136378628D02*
X132257143Y-136331009D01*
X132257143Y-136331009D02*
X132161905Y-136283390D01*
X132161905Y-136283390D02*
X132114286Y-136235771D01*
X132114286Y-136235771D02*
X132066667Y-136140533D01*
X132066667Y-136140533D02*
X132066667Y-136045295D01*
X132066667Y-136045295D02*
X132114286Y-135950057D01*
X132114286Y-135950057D02*
X132161905Y-135902438D01*
X132161905Y-135902438D02*
X132257143Y-135854819D01*
X132257143Y-135854819D02*
X132495238Y-135854819D01*
X132495238Y-135854819D02*
X132638095Y-135902438D01*
X132971429Y-135854819D02*
X133209524Y-136854819D01*
X133209524Y-136854819D02*
X133400000Y-136140533D01*
X133400000Y-136140533D02*
X133590476Y-136854819D01*
X133590476Y-136854819D02*
X133828572Y-135854819D01*
X134257143Y-136854819D02*
X134447619Y-136854819D01*
X134447619Y-136854819D02*
X134542857Y-136807200D01*
X134542857Y-136807200D02*
X134590476Y-136759580D01*
X134590476Y-136759580D02*
X134685714Y-136616723D01*
X134685714Y-136616723D02*
X134733333Y-136426247D01*
X134733333Y-136426247D02*
X134733333Y-136045295D01*
X134733333Y-136045295D02*
X134685714Y-135950057D01*
X134685714Y-135950057D02*
X134638095Y-135902438D01*
X134638095Y-135902438D02*
X134542857Y-135854819D01*
X134542857Y-135854819D02*
X134352381Y-135854819D01*
X134352381Y-135854819D02*
X134257143Y-135902438D01*
X134257143Y-135902438D02*
X134209524Y-135950057D01*
X134209524Y-135950057D02*
X134161905Y-136045295D01*
X134161905Y-136045295D02*
X134161905Y-136283390D01*
X134161905Y-136283390D02*
X134209524Y-136378628D01*
X134209524Y-136378628D02*
X134257143Y-136426247D01*
X134257143Y-136426247D02*
X134352381Y-136473866D01*
X134352381Y-136473866D02*
X134542857Y-136473866D01*
X134542857Y-136473866D02*
X134638095Y-136426247D01*
X134638095Y-136426247D02*
X134685714Y-136378628D01*
X134685714Y-136378628D02*
X134733333Y-136283390D01*
X144880952Y-79854819D02*
X144404762Y-79854819D01*
X144404762Y-79854819D02*
X144404762Y-78854819D01*
X145214286Y-79331009D02*
X145547619Y-79331009D01*
X145690476Y-79854819D02*
X145214286Y-79854819D01*
X145214286Y-79854819D02*
X145214286Y-78854819D01*
X145214286Y-78854819D02*
X145690476Y-78854819D01*
X146119048Y-79854819D02*
X146119048Y-78854819D01*
X146119048Y-78854819D02*
X146357143Y-78854819D01*
X146357143Y-78854819D02*
X146500000Y-78902438D01*
X146500000Y-78902438D02*
X146595238Y-78997676D01*
X146595238Y-78997676D02*
X146642857Y-79092914D01*
X146642857Y-79092914D02*
X146690476Y-79283390D01*
X146690476Y-79283390D02*
X146690476Y-79426247D01*
X146690476Y-79426247D02*
X146642857Y-79616723D01*
X146642857Y-79616723D02*
X146595238Y-79711961D01*
X146595238Y-79711961D02*
X146500000Y-79807200D01*
X146500000Y-79807200D02*
X146357143Y-79854819D01*
X146357143Y-79854819D02*
X146119048Y-79854819D01*
X147595238Y-78854819D02*
X147119048Y-78854819D01*
X147119048Y-78854819D02*
X147071429Y-79331009D01*
X147071429Y-79331009D02*
X147119048Y-79283390D01*
X147119048Y-79283390D02*
X147214286Y-79235771D01*
X147214286Y-79235771D02*
X147452381Y-79235771D01*
X147452381Y-79235771D02*
X147547619Y-79283390D01*
X147547619Y-79283390D02*
X147595238Y-79331009D01*
X147595238Y-79331009D02*
X147642857Y-79426247D01*
X147642857Y-79426247D02*
X147642857Y-79664342D01*
X147642857Y-79664342D02*
X147595238Y-79759580D01*
X147595238Y-79759580D02*
X147547619Y-79807200D01*
X147547619Y-79807200D02*
X147452381Y-79854819D01*
X147452381Y-79854819D02*
X147214286Y-79854819D01*
X147214286Y-79854819D02*
X147119048Y-79807200D01*
X147119048Y-79807200D02*
X147071429Y-79759580D01*
X144880952Y-63654819D02*
X144404762Y-63654819D01*
X144404762Y-63654819D02*
X144404762Y-62654819D01*
X145214286Y-63131009D02*
X145547619Y-63131009D01*
X145690476Y-63654819D02*
X145214286Y-63654819D01*
X145214286Y-63654819D02*
X145214286Y-62654819D01*
X145214286Y-62654819D02*
X145690476Y-62654819D01*
X146119048Y-63654819D02*
X146119048Y-62654819D01*
X146119048Y-62654819D02*
X146357143Y-62654819D01*
X146357143Y-62654819D02*
X146500000Y-62702438D01*
X146500000Y-62702438D02*
X146595238Y-62797676D01*
X146595238Y-62797676D02*
X146642857Y-62892914D01*
X146642857Y-62892914D02*
X146690476Y-63083390D01*
X146690476Y-63083390D02*
X146690476Y-63226247D01*
X146690476Y-63226247D02*
X146642857Y-63416723D01*
X146642857Y-63416723D02*
X146595238Y-63511961D01*
X146595238Y-63511961D02*
X146500000Y-63607200D01*
X146500000Y-63607200D02*
X146357143Y-63654819D01*
X146357143Y-63654819D02*
X146119048Y-63654819D01*
X147023810Y-62654819D02*
X147642857Y-62654819D01*
X147642857Y-62654819D02*
X147309524Y-63035771D01*
X147309524Y-63035771D02*
X147452381Y-63035771D01*
X147452381Y-63035771D02*
X147547619Y-63083390D01*
X147547619Y-63083390D02*
X147595238Y-63131009D01*
X147595238Y-63131009D02*
X147642857Y-63226247D01*
X147642857Y-63226247D02*
X147642857Y-63464342D01*
X147642857Y-63464342D02*
X147595238Y-63559580D01*
X147595238Y-63559580D02*
X147547619Y-63607200D01*
X147547619Y-63607200D02*
X147452381Y-63654819D01*
X147452381Y-63654819D02*
X147166667Y-63654819D01*
X147166667Y-63654819D02*
X147071429Y-63607200D01*
X147071429Y-63607200D02*
X147023810Y-63559580D01*
X132249167Y-100607200D02*
X132392024Y-100654819D01*
X132392024Y-100654819D02*
X132630119Y-100654819D01*
X132630119Y-100654819D02*
X132725357Y-100607200D01*
X132725357Y-100607200D02*
X132772976Y-100559580D01*
X132772976Y-100559580D02*
X132820595Y-100464342D01*
X132820595Y-100464342D02*
X132820595Y-100369104D01*
X132820595Y-100369104D02*
X132772976Y-100273866D01*
X132772976Y-100273866D02*
X132725357Y-100226247D01*
X132725357Y-100226247D02*
X132630119Y-100178628D01*
X132630119Y-100178628D02*
X132439643Y-100131009D01*
X132439643Y-100131009D02*
X132344405Y-100083390D01*
X132344405Y-100083390D02*
X132296786Y-100035771D01*
X132296786Y-100035771D02*
X132249167Y-99940533D01*
X132249167Y-99940533D02*
X132249167Y-99845295D01*
X132249167Y-99845295D02*
X132296786Y-99750057D01*
X132296786Y-99750057D02*
X132344405Y-99702438D01*
X132344405Y-99702438D02*
X132439643Y-99654819D01*
X132439643Y-99654819D02*
X132677738Y-99654819D01*
X132677738Y-99654819D02*
X132820595Y-99702438D01*
X133153929Y-99654819D02*
X133392024Y-100654819D01*
X133392024Y-100654819D02*
X133582500Y-99940533D01*
X133582500Y-99940533D02*
X133772976Y-100654819D01*
X133772976Y-100654819D02*
X134011072Y-99654819D01*
X134296786Y-99654819D02*
X134963452Y-99654819D01*
X134963452Y-99654819D02*
X134534881Y-100654819D01*
%TO.C,LED7*%
D12*
X144302500Y-96749000D02*
X144302500Y-96905000D01*
X144302500Y-99065000D02*
X144302500Y-99221000D01*
X144302500Y-96749484D02*
G75*
G02*
X147533937Y-96905000I1560000J-1235516D01*
G01*
X144821539Y-96905000D02*
G75*
G02*
X146903461Y-96905000I1040961J-1080000D01*
G01*
X146903461Y-99065000D02*
G75*
G02*
X144821539Y-99065000I-1040961J1080000D01*
G01*
X147533937Y-99065000D02*
G75*
G02*
X144302500Y-99220516I-1671437J1080000D01*
G01*
%TO.C,LED9*%
X132022500Y-123042000D02*
X132022500Y-123198000D01*
X132022500Y-125358000D02*
X132022500Y-125514000D01*
X132022500Y-123042484D02*
G75*
G02*
X135253937Y-123198000I1560000J-1235516D01*
G01*
X132541539Y-123198000D02*
G75*
G02*
X134623461Y-123198000I1040961J-1080000D01*
G01*
X134623461Y-125358000D02*
G75*
G02*
X132541539Y-125358000I-1040961J1080000D01*
G01*
X135253937Y-125358000D02*
G75*
G02*
X132022500Y-125513516I-1671437J1080000D01*
G01*
%TO.C,LED2*%
X144302500Y-56749000D02*
X144302500Y-56905000D01*
X144302500Y-59065000D02*
X144302500Y-59221000D01*
X144302500Y-56749484D02*
G75*
G02*
X147533937Y-56905000I1560000J-1235516D01*
G01*
X144821539Y-56905000D02*
G75*
G02*
X146903461Y-56905000I1040961J-1080000D01*
G01*
X146903461Y-59065000D02*
G75*
G02*
X144821539Y-59065000I-1040961J1080000D01*
G01*
X147533937Y-59065000D02*
G75*
G02*
X144302500Y-59220516I-1671437J1080000D01*
G01*
%TO.C,SW8*%
X154092500Y-103635000D02*
X162192500Y-103635000D01*
%TO.C,SW2*%
X154092500Y-55635000D02*
X162192500Y-55635000D01*
%TO.C,LED6*%
X144302500Y-88749000D02*
X144302500Y-88905000D01*
X144302500Y-91065000D02*
X144302500Y-91221000D01*
X144302500Y-88749484D02*
G75*
G02*
X147533937Y-88905000I1560000J-1235516D01*
G01*
X144821539Y-88905000D02*
G75*
G02*
X146903461Y-88905000I1040961J-1080000D01*
G01*
X146903461Y-91065000D02*
G75*
G02*
X144821539Y-91065000I-1040961J1080000D01*
G01*
X147533937Y-91065000D02*
G75*
G02*
X144302500Y-91220516I-1671437J1080000D01*
G01*
%TO.C,LED10*%
X156582500Y-123042000D02*
X156582500Y-123198000D01*
X156582500Y-125358000D02*
X156582500Y-125514000D01*
X156582500Y-123042484D02*
G75*
G02*
X159813937Y-123198000I1560000J-1235516D01*
G01*
X157101539Y-123198000D02*
G75*
G02*
X159183461Y-123198000I1040961J-1080000D01*
G01*
X159183461Y-125358000D02*
G75*
G02*
X157101539Y-125358000I-1040961J1080000D01*
G01*
X159813937Y-125358000D02*
G75*
G02*
X156582500Y-125513516I-1671437J1080000D01*
G01*
%TO.C,LED1*%
X144302500Y-48749000D02*
X144302500Y-48905000D01*
X144302500Y-51065000D02*
X144302500Y-51221000D01*
X144302500Y-48749484D02*
G75*
G02*
X147533937Y-48905000I1560000J-1235516D01*
G01*
X144821539Y-48905000D02*
G75*
G02*
X146903461Y-48905000I1040961J-1080000D01*
G01*
X146903461Y-51065000D02*
G75*
G02*
X144821539Y-51065000I-1040961J1080000D01*
G01*
X147533937Y-51065000D02*
G75*
G02*
X144302500Y-51220516I-1671437J1080000D01*
G01*
%TO.C,J5*%
D13*
X153642500Y-142010000D02*
X153642500Y-152510000D01*
X153642500Y-142010000D02*
X156642500Y-142010000D01*
X153642500Y-152510000D02*
X158342500Y-152510000D01*
X156642500Y-142010000D02*
X156642500Y-144010000D01*
X156642500Y-142010000D02*
X159642500Y-142010000D01*
X156642500Y-144010000D02*
X159642500Y-144010000D01*
X157942500Y-152610000D02*
X157942500Y-154710000D01*
X157942500Y-154710000D02*
X158342500Y-154710000D01*
X158342500Y-152510000D02*
X162642500Y-152510000D01*
X158342500Y-154710000D02*
X158342500Y-152510000D01*
X159642500Y-142010000D02*
X162642500Y-142010000D01*
X159642500Y-144010000D02*
X159642500Y-142010000D01*
X162642500Y-152510000D02*
X162642500Y-142010000D01*
X160833221Y-148010000D02*
G75*
G02*
X155451779Y-148010000I-2690721J0D01*
G01*
X155451779Y-148010000D02*
G75*
G02*
X160833221Y-148010000I2690721J0D01*
G01*
X161304775Y-148010000D02*
G75*
G02*
X154980225Y-148010000I-3162275J0D01*
G01*
X154980225Y-148010000D02*
G75*
G02*
X161304775Y-148010000I3162275J0D01*
G01*
%TO.C,SW5*%
D12*
X129532500Y-79635000D02*
X137632500Y-79635000D01*
%TO.C,J4*%
D13*
X129082500Y-142010000D02*
X129082500Y-152510000D01*
X129082500Y-142010000D02*
X132082500Y-142010000D01*
X129082500Y-152510000D02*
X133782500Y-152510000D01*
X132082500Y-142010000D02*
X132082500Y-144010000D01*
X132082500Y-142010000D02*
X135082500Y-142010000D01*
X132082500Y-144010000D02*
X135082500Y-144010000D01*
X133382500Y-152610000D02*
X133382500Y-154710000D01*
X133382500Y-154710000D02*
X133782500Y-154710000D01*
X133782500Y-152510000D02*
X138082500Y-152510000D01*
X133782500Y-154710000D02*
X133782500Y-152510000D01*
X135082500Y-142010000D02*
X138082500Y-142010000D01*
X135082500Y-144010000D02*
X135082500Y-142010000D01*
X138082500Y-152510000D02*
X138082500Y-142010000D01*
X136273221Y-148010000D02*
G75*
G02*
X130891779Y-148010000I-2690721J0D01*
G01*
X130891779Y-148010000D02*
G75*
G02*
X136273221Y-148010000I2690721J0D01*
G01*
X136744775Y-148010000D02*
G75*
G02*
X130420225Y-148010000I-3162275J0D01*
G01*
X130420225Y-148010000D02*
G75*
G02*
X136744775Y-148010000I3162275J0D01*
G01*
%TO.C,LED8*%
D12*
X144302500Y-104749000D02*
X144302500Y-104905000D01*
X144302500Y-107065000D02*
X144302500Y-107221000D01*
X144302500Y-104749484D02*
G75*
G02*
X147533937Y-104905000I1560000J-1235516D01*
G01*
X144821539Y-104905000D02*
G75*
G02*
X146903461Y-104905000I1040961J-1080000D01*
G01*
X146903461Y-107065000D02*
G75*
G02*
X144821539Y-107065000I-1040961J1080000D01*
G01*
X147533937Y-107065000D02*
G75*
G02*
X144302500Y-107220516I-1671437J1080000D01*
G01*
%TO.C,SW6*%
X154092500Y-87635000D02*
X162192500Y-87635000D01*
%TO.C,SW10*%
X153292500Y-138210000D02*
X153292500Y-130110000D01*
%TO.C,SW3*%
X129532500Y-63635000D02*
X137632500Y-63635000D01*
%TO.C,SW4*%
X154092500Y-71635000D02*
X162192500Y-71635000D01*
%TO.C,LED4*%
X144302500Y-72749000D02*
X144302500Y-72905000D01*
X144302500Y-75065000D02*
X144302500Y-75221000D01*
X144302500Y-72749484D02*
G75*
G02*
X147533937Y-72905000I1560000J-1235516D01*
G01*
X144821539Y-72905000D02*
G75*
G02*
X146903461Y-72905000I1040961J-1080000D01*
G01*
X146903461Y-75065000D02*
G75*
G02*
X144821539Y-75065000I-1040961J1080000D01*
G01*
X147533937Y-75065000D02*
G75*
G02*
X144302500Y-75220516I-1671437J1080000D01*
G01*
%TO.C,SW1*%
X129532500Y-47635000D02*
X137632500Y-47635000D01*
%TO.C,SW9*%
X128732500Y-138210000D02*
X128732500Y-130110000D01*
%TO.C,LED5*%
X144302500Y-80749000D02*
X144302500Y-80905000D01*
X144302500Y-83065000D02*
X144302500Y-83221000D01*
X144302500Y-80749484D02*
G75*
G02*
X147533937Y-80905000I1560000J-1235516D01*
G01*
X144821539Y-80905000D02*
G75*
G02*
X146903461Y-80905000I1040961J-1080000D01*
G01*
X146903461Y-83065000D02*
G75*
G02*
X144821539Y-83065000I-1040961J1080000D01*
G01*
X147533937Y-83065000D02*
G75*
G02*
X144302500Y-83220516I-1671437J1080000D01*
G01*
%TO.C,LED3*%
X144302500Y-64749000D02*
X144302500Y-64905000D01*
X144302500Y-67065000D02*
X144302500Y-67221000D01*
X144302500Y-64749484D02*
G75*
G02*
X147533937Y-64905000I1560000J-1235516D01*
G01*
X144821539Y-64905000D02*
G75*
G02*
X146903461Y-64905000I1040961J-1080000D01*
G01*
X146903461Y-67065000D02*
G75*
G02*
X144821539Y-67065000I-1040961J1080000D01*
G01*
X147533937Y-67065000D02*
G75*
G02*
X144302500Y-67220516I-1671437J1080000D01*
G01*
%TO.C,J3*%
D13*
X129082500Y-107921000D02*
X129082500Y-118421000D01*
X129082500Y-107921000D02*
X132082500Y-107921000D01*
X129082500Y-118421000D02*
X133782500Y-118421000D01*
X132082500Y-107921000D02*
X132082500Y-109921000D01*
X132082500Y-107921000D02*
X135082500Y-107921000D01*
X132082500Y-109921000D02*
X135082500Y-109921000D01*
X133382500Y-118521000D02*
X133382500Y-120621000D01*
X133382500Y-120621000D02*
X133782500Y-120621000D01*
X133782500Y-118421000D02*
X138082500Y-118421000D01*
X133782500Y-120621000D02*
X133782500Y-118421000D01*
X135082500Y-107921000D02*
X138082500Y-107921000D01*
X135082500Y-109921000D02*
X135082500Y-107921000D01*
X138082500Y-118421000D02*
X138082500Y-107921000D01*
X136273221Y-113921000D02*
G75*
G02*
X130891779Y-113921000I-2690721J0D01*
G01*
X130891779Y-113921000D02*
G75*
G02*
X136273221Y-113921000I2690721J0D01*
G01*
X136744775Y-113921000D02*
G75*
G02*
X130420225Y-113921000I-3162275J0D01*
G01*
X130420225Y-113921000D02*
G75*
G02*
X136744775Y-113921000I3162275J0D01*
G01*
%TO.C,SW7*%
D12*
X129532500Y-95635000D02*
X137632500Y-95635000D01*
%TD*%
M02*
